{
  "asset": {
    "version": "2.0",
    "generator": "THREE.GLTFExporter r181"
  },
  "scenes": [
    {
      "name": "AuxScene",
      "nodes": [
        0
      ]
    }
  ],
  "scene": 0,
  "nodes": [
    {
      "name": "whitewindow",
      "mesh": 0
    }
  ],
  "bufferViews": [
    {
      "buffer": 0,
      "byteOffset": 0,
      "byteLength": 36216,
      "target": 34962,
      "byteStride": 12
    },
    {
      "buffer": 0,
      "byteOffset": 36216,
      "byteLength": 36216,
      "target": 34962,
      "byteStride": 12
    },
    {
      "buffer": 0,
      "byteOffset": 72432,
      "byteLength": 24144,
      "target": 34962,
      "byteStride": 8
    },
    {
      "buffer": 0,
      "byteOffset": 96576,
      "byteLength": 384,
      "target": 34963
    },
    {
      "buffer": 0,
      "byteOffset": 96960,
      "byteLength": 408,
      "target": 34963
    },
    {
      "buffer": 0,
      "byteOffset": 97368,
      "byteLength": 624,
      "target": 34963
    },
    {
      "buffer": 0,
      "byteOffset": 97992,
      "byteLength": 24,
      "target": 34963
    },
    {
      "buffer": 0,
      "byteOffset": 98016,
      "byteLength": 680,
      "target": 34963
    },
    {
      "buffer": 0,
      "byteOffset": 98696,
      "byteLength": 12,
      "target": 34963
    },
    {
      "buffer": 0,
      "byteOffset": 98708,
      "byteLength": 188,
      "target": 34963
    },
    {
      "buffer": 0,
      "byteOffset": 98896,
      "byteLength": 12,
      "target": 34963
    },
    {
      "buffer": 0,
      "byteOffset": 98908,
      "byteLength": 12,
      "target": 34963
    },
    {
      "buffer": 0,
      "byteOffset": 98920,
      "byteLength": 2328,
      "target": 34963
    },
    {
      "buffer": 0,
      "byteOffset": 101248,
      "byteLength": 516,
      "target": 34963
    },
    {
      "buffer": 0,
      "byteOffset": 101764,
      "byteLength": 12,
      "target": 34963
    },
    {
      "buffer": 0,
      "byteOffset": 101776,
      "byteLength": 108,
      "target": 34963
    },
    {
      "buffer": 0,
      "byteOffset": 101884,
      "byteLength": 12,
      "target": 34963
    },
    {
      "buffer": 0,
      "byteOffset": 101896,
      "byteLength": 720,
      "target": 34963
    }
  ],
  "buffers": [
    {
      "byteLength": 102616,
      "uri": "data:application/octet-stream;base64,"
    }
  ],
  "accessors": [
    {
      "bufferView": 0,
      "componentType": 5126,
      "count": 3018,
      "max": [
        4.800000190734863,
        6.630959987640381,
        -1.3215500116348267
      ],
      "min": [
        -2.6102700730057382e-12,
        -0.017485300078988075,
        -1.8967900276184082
      ],
      "type": "VEC3"
    },
    {
      "bufferView": 1,
      "componentType": 5126,
      "count": 3018,
      "max": [
        1,
        1,
        1
      ],
      "min": [
        -1,
        -1,
        -1
      ],
      "type": "VEC3"
    },
    {
      "bufferView": 2,
      "componentType": 5126,
      "count": 3018,
      "max": [
        42.70790100097656,
        43.70790100097656
      ],
      "min": [
        -42.70790100097656,
        -63.99399948120117
      ],
      "type": "VEC2"
    },
    {
      "bufferView": 3,
      "componentType": 5123,
      "count": 192,
      "max": [
        191
      ],
      "min": [
        0
      ],
      "type": "SCALAR"
    },
    {
      "bufferView": 4,
      "componentType": 5123,
      "count": 204,
      "max": [
        395
      ],
      "min": [
        192
      ],
      "type": "SCALAR"
    },
    {
      "bufferView": 5,
      "componentType": 5123,
      "count": 312,
      "max": [
        707
      ],
      "min": [
        396
      ],
      "type": "SCALAR"
    },
    {
      "bufferView": 6,
      "componentType": 5123,
      "count": 12,
      "max": [
        719
      ],
      "min": [
        708
      ],
      "type": "SCALAR"
    },
    {
      "bufferView": 7,
      "componentType": 5123,
      "count": 339,
      "max": [
        1058
      ],
      "min": [
        720
      ],
      "type": "SCALAR"
    },
    {
      "bufferView": 8,
      "componentType": 5123,
      "count": 6,
      "max": [
        1064
      ],
      "min": [
        1059
      ],
      "type": "SCALAR"
    },
    {
      "bufferView": 9,
      "componentType": 5123,
      "count": 93,
      "max": [
        1157
      ],
      "min": [
        1065
      ],
      "type": "SCALAR"
    },
    {
      "bufferView": 10,
      "componentType": 5123,
      "count": 6,
      "max": [
        1163
      ],
      "min": [
        1158
      ],
      "type": "SCALAR"
    },
    {
      "bufferView": 11,
      "componentType": 5123,
      "count": 6,
      "max": [
        1169
      ],
      "min": [
        1164
      ],
      "type": "SCALAR"
    },
    {
      "bufferView": 12,
      "componentType": 5123,
      "count": 1164,
      "max": [
        2333
      ],
      "min": [
        1170
      ],
      "type": "SCALAR"
    },
    {
      "bufferView": 13,
      "componentType": 5123,
      "count": 258,
      "max": [
        2591
      ],
      "min": [
        2334
      ],
      "type": "SCALAR"
    },
    {
      "bufferView": 14,
      "componentType": 5123,
      "count": 6,
      "max": [
        2597
      ],
      "min": [
        2592
      ],
      "type": "SCALAR"
    },
    {
      "bufferView": 15,
      "componentType": 5123,
      "count": 54,
      "max": [
        2651
      ],
      "min": [
        2598
      ],
      "type": "SCALAR"
    },
    {
      "bufferView": 16,
      "componentType": 5123,
      "count": 6,
      "max": [
        2657
      ],
      "min": [
        2652
      ],
      "type": "SCALAR"
    },
    {
      "bufferView": 17,
      "componentType": 5123,
      "count": 360,
      "max": [
        3017
      ],
      "min": [
        2658
      ],
      "type": "SCALAR"
    }
  ],
  "materials": [
    {
      "pbrMetallicRoughness": {
        "baseColorFactor": [
          0.6274510000266282,
          0.5647059047923371,
          0.3137255000133141,
          1
        ],
        "metallicFactor": 0,
        "roughnessFactor": 1
      },
      "name": "FF012"
    },
    {
      "pbrMetallicRoughness": {
        "baseColorFactor": [
          0.6274510000266282,
          0.5647059047923371,
          0.3137255000133141,
          1
        ],
        "metallicFactor": 0,
        "roughnessFactor": 1
      },
      "name": "FF012"
    },
    {
      "pbrMetallicRoughness": {
        "metallicFactor": 0,
        "roughnessFactor": 1
      },
      "name": "FF081"
    },
    {
      "pbrMetallicRoughness": {
        "baseColorFactor": [
          0.42352944051518193,
          0.42352944051518193,
          0.42352944051518193,
          0.16187050938606262
        ],
        "metallicFactor": 0,
        "roughnessFactor": 1
      },
      "alphaMode": "BLEND",
      "name": "FF098"
    },
    {
      "pbrMetallicRoughness": {
        "baseColorFactor": [
          0,
          0,
          0,
          1
        ],
        "metallicFactor": 0,
        "roughnessFactor": 1,
        "baseColorTexture": {
          "index": 0
        }
      },
      "name": "Foregrou"
    },
    {
      "pbrMetallicRoughness": {
        "baseColorFactor": [
          0,
          0,
          0,
          1
        ],
        "metallicFactor": 0,
        "roughnessFactor": 1
      },
      "name": "Foregrou"
    },
    {
      "pbrMetallicRoughness": {
        "metallicFactor": 0,
        "roughnessFactor": 1
      },
      "name": "FF081"
    },
    {
      "pbrMetallicRoughness": {
        "metallicFactor": 0,
        "roughnessFactor": 1
      },
      "name": "FF081"
    },
    {
      "pbrMetallicRoughness": {
        "baseColorFactor": [
          0.42352944051518193,
          0.42352944051518193,
          0.42352944051518193,
          0.16187050938606262
        ],
        "metallicFactor": 0,
        "roughnessFactor": 1,
        "baseColorTexture": {
          "index": 1
        }
      },
      "alphaMode": "BLEND",
      "name": "FF098"
    }
  ],
  "meshes": [
    {
      "primitives": [
        {
          "mode": 4,
          "attributes": {
            "POSITION": 0,
            "NORMAL": 1,
            "TEXCOORD_0": 2
          },
          "indices": 3,
          "material": 0
        },
        {
          "mode": 4,
          "attributes": {
            "POSITION": 0,
            "NORMAL": 1,
            "TEXCOORD_0": 2
          },
          "indices": 4,
          "material": 1
        },
        {
          "mode": 4,
          "attributes": {
            "POSITION": 0,
            "NORMAL": 1,
            "TEXCOORD_0": 2
          },
          "indices": 5,
          "material": 2
        },
        {
          "mode": 4,
          "attributes": {
            "POSITION": 0,
            "NORMAL": 1,
            "TEXCOORD_0": 2
          },
          "indices": 6,
          "material": 3
        },
        {
          "mode": 4,
          "attributes": {
            "POSITION": 0,
            "NORMAL": 1,
            "TEXCOORD_0": 2
          },
          "indices": 7,
          "material": 2
        },
        {
          "mode": 4,
          "attributes": {
            "POSITION": 0,
            "NORMAL": 1,
            "TEXCOORD_0": 2
          },
          "indices": 8,
          "material": 3
        },
        {
          "mode": 4,
          "attributes": {
            "POSITION": 0,
            "NORMAL": 1,
            "TEXCOORD_0": 2
          },
          "indices": 9,
          "material": 2
        },
        {
          "mode": 4,
          "attributes": {
            "POSITION": 0,
            "NORMAL": 1,
            "TEXCOORD_0": 2
          },
          "indices": 10,
          "material": 4
        },
        {
          "mode": 4,
          "attributes": {
            "POSITION": 0,
            "NORMAL": 1,
            "TEXCOORD_0": 2
          },
          "indices": 11,
          "material": 5
        },
        {
          "mode": 4,
          "attributes": {
            "POSITION": 0,
            "NORMAL": 1,
            "TEXCOORD_0": 2
          },
          "indices": 12,
          "material": 6
        },
        {
          "mode": 4,
          "attributes": {
            "POSITION": 0,
            "NORMAL": 1,
            "TEXCOORD_0": 2
          },
          "indices": 13,
          "material": 7
        },
        {
          "mode": 4,
          "attributes": {
            "POSITION": 0,
            "NORMAL": 1,
            "TEXCOORD_0": 2
          },
          "indices": 14,
          "material": 8
        },
        {
          "mode": 4,
          "attributes": {
            "POSITION": 0,
            "NORMAL": 1,
            "TEXCOORD_0": 2
          },
          "indices": 15,
          "material": 7
        },
        {
          "mode": 4,
          "attributes": {
            "POSITION": 0,
            "NORMAL": 1,
            "TEXCOORD_0": 2
          },
          "indices": 16,
          "material": 8
        },
        {
          "mode": 4,
          "attributes": {
            "POSITION": 0,
            "NORMAL": 1,
            "TEXCOORD_0": 2
          },
          "indices": 17,
          "material": 7
        }
      ]
    }
  ],
  "images": [
    {
      "uri": "white_wood.jpg"
    }
  ],
  "textures": [
    {
      "sampler": 0,
      "source": 0
    },
    {
      "sampler": 0,
      "source": 0
    },
    {
      "sampler": 0,
      "source": 0
    }
  ],
  "samplers": [
    {
      "magFilter": 9729,
      "minFilter": 9987,
      "wrapS": 10497,
      "wrapT": 10497
    }
  ]
}